<?xml version="1.0" standalone="no"?>
<!DOCTYPE svg PUBLIC "-//W3C//DTD SVG 20010904//EN"
 "http://www.w3.org/TR/2001/REC-SVG-20010904/DTD/svg10.dtd">
<svg version="1.0" xmlns="http://www.w3.org/2000/svg"
 width="300.000000pt" height="400.000000pt" viewBox="0 0 300.000000 400.000000"
 preserveAspectRatio="xMidYMid meet">
<metadata>
Created by potrace 1.10, written by Peter Selinger 2001-2011
</metadata>
<g transform="translate(0.000000,400.000000) scale(0.100000,-0.100000)"
fill="#000000" stroke="none">
<path d="M1462 2138 c-16 -16 -15 -48 1 -48 25 0 39 17 32 39 -7 24 -16 26
-33 9z"/>
<path d="M1493 2090 c-57 -62 -61 -70 -38 -70 8 0 15 7 15 15 0 7 20 31 45 52
25 20 45 43 45 50 0 23 -14 13 -67 -47z"/>
<path d="M1505 2060 c-22 -25 -8 -46 24 -35 24 7 26 15 8 39 -12 16 -14 16
-32 -4z"/>
<path d="M1190 1958 c-37 -60 -10 -98 44 -62 32 20 36 68 7 84 -28 14 -29 14
-51 -22z m58 -16 c2 -14 -6 -27 -23 -38 -36 -24 -52 -7 -31 34 18 35 49 37 54
4z"/>
<path d="M1398 1977 c-21 -6 -38 -15 -38 -19 0 -5 9 -6 21 -3 19 6 20 4 17
-31 -1 -20 2 -39 7 -41 6 -2 10 16 10 39 0 37 3 43 23 46 12 2 22 8 22 13 0
11 -12 10 -62 -4z"/>
<path d="M1620 1971 c-34 -9 -42 -74 -11 -90 19 -11 81 3 69 15 -3 2 -17 0
-31 -5 -24 -10 -37 -6 -37 11 0 11 58 10 81 -2 27 -15 59 4 59 35 0 30 -20 32
-45 5 -10 -11 -29 -20 -43 -20 -24 0 -24 1 -8 19 10 11 15 25 11 30 -7 12 -9
12 -45 2z"/>
<path d="M1314 1930 c7 -36 -11 -41 -20 -5 -6 26 -24 35 -24 13 0 -7 -3 -23
-6 -35 -4 -14 -2 -23 5 -23 6 0 11 7 11 17 0 15 1 15 18 0 10 -10 22 -14 25
-10 12 11 8 73 -4 73 -7 0 -9 -11 -5 -30z"/>
<path d="M1433 1934 c-6 -13 -7 -22 -2 -18 5 3 9 -2 9 -10 0 -9 4 -16 10 -16
5 0 7 6 4 14 -3 8 -1 17 5 21 6 3 11 -2 11 -13 0 -25 40 -37 59 -17 12 12 11
13 -9 8 -16 -4 -21 -3 -16 5 4 7 15 12 24 13 14 0 13 2 -3 9 -19 8 -19 9 3 9
22 1 32 21 10 21 -18 0 -33 -12 -47 -35 -7 -13 -11 -15 -10 -5 1 8 1 22 0 30
-1 13 -2 13 -11 0 -7 -11 -12 -12 -18 -3 -5 8 -11 4 -19 -13z"/>
<path d="M1806 1928 c6 -29 5 -31 -10 -19 -9 7 -16 20 -16 27 0 8 -4 14 -10
14 -5 0 -10 -9 -10 -19 0 -11 -3 -26 -6 -35 -3 -9 -1 -16 5 -16 6 0 11 7 11
17 0 15 1 15 18 0 10 -10 22 -14 25 -10 11 11 8 73 -4 73 -7 0 -8 -11 -3 -32z"/>
</g>
</svg>
